<svg xmlns="http://www.w3.org/2000/svg" width="223.438" height="102.7" viewBox="0 0 223.438 102.7">
  <g id="Website" transform="translate(32.643 1.18)">
    <g id="Group-15" transform="translate(0 -44)">
      <path id="Fill-22" d="M62.605,28.948v13.6H84.842V58.076H62.605V101.52H44.053V58.076H33V42.549H44.053v-14c0-9.211,2.631-16.316,8.026-21.184S64.579,0,73.132,0a42.442,42.442,0,0,1,20.4,5.264L87.473,19.474C83,17.5,79.184,16.448,75.9,16.448c-8.555,0-13.291,4.474-13.291,12.5" transform="translate(0 44)" fill="#0045b8" fill-rule="evenodd"/>
      <path id="Fill-23" d="M153.032,27.28c4.766,4.13,7.093,10.162,7.093,18.1V81.05H141.39V49.086c0-7.3-4.129-11.008-9.739-11.008-6.348,0-10.9,4.339-10.9,11.641V81.05H102.122V49.086c0-6.879-4.126-11.008-10.055-11.008-6.032,0-10.583,4.339-10.583,11.641V81.05H62.857V22.625H81.062v8.149c3.282-6.033,10.583-9.947,18.1-9.842,7.832.106,13.228,3.387,16.192,9.737,4.34-6.349,12.173-9.737,20.533-9.737a24.566,24.566,0,0,1,17.146,6.348" transform="translate(30.67 64.47)" fill="#0045b8" fill-rule="evenodd"/>
      <path id="Fill-24" d="M39.9,82.087a12.454,12.454,0,0,1-9.127,3.691,12.227,12.227,0,0,1-9.027-3.691,12.933,12.933,0,0,1-3.692-9.336,12.221,12.221,0,0,1,3.692-9.025,11.931,11.931,0,0,1,9.027-3.8A12.22,12.22,0,0,1,39.8,63.624a12.159,12.159,0,0,1,3.793,9.127A12.936,12.936,0,0,1,39.9,82.087m13.13-30.463C47.385,45.776,39.9,42.9,30.77,42.9a33.521,33.521,0,0,0-12.716,2.312V0H0V72.751H0c0,.035,0,.068,0,.1A29.175,29.175,0,0,0,8.512,94.087C14.258,99.83,21.641,102.7,30.77,102.7s16.615-2.87,22.257-8.613a28.866,28.866,0,0,0,8.616-21.233,28.854,28.854,0,0,0-8.616-21.23" transform="translate(-32.643 42.82)" fill="#0045b8" fill-rule="evenodd"/>
    </g>
  </g>
</svg>
