<svg xmlns="http://www.w3.org/2000/svg" xmlns:xlink="http://www.w3.org/1999/xlink" width="100" height="100" viewBox="0 0 100 100"><defs><linearGradient id="a" y1="0.5" x2="1" y2="0.5" gradientUnits="objectBoundingBox"><stop offset="0" stop-color="#e09132"/><stop offset="1" stop-color="#ffb955"/></linearGradient><linearGradient id="e" y1="0.5" x2="1" y2="0.5" gradientUnits="objectBoundingBox"><stop offset="0" stop-color="#174e48"/><stop offset="1" stop-color="#5d743c"/></linearGradient><clipPath id="h"><rect width="100" height="100"/></clipPath></defs><g id="g" clip-path="url(#h)"><g transform="translate(-609.144 -500.851)"><g transform="translate(649.878 554.986)"><path d="M963.691,458.365a24.342,24.342,0,0,1-22.806,12.115l21.9-37.924A24.342,24.342,0,0,1,963.691,458.365Z" transform="translate(-936.709 -432.497)" fill="url(#a)"/><path d="M951.27,432.392l-21.895,37.924a24.352,24.352,0,0,1,21.895-37.924Z" transform="translate(-925.198 -432.333)" fill="url(#a)"/><path d="M951.27,432.392l-21.895,37.924a24.352,24.352,0,0,1,21.895-37.924Z" transform="translate(-925.198 -432.333)" fill="url(#a)"/></g><path d="M835.666,339.665a16.829,16.829,0,0,1-22.987-6.161l-6.31-10.929a16.91,16.91,0,0,1-1.707-4.14L772.2,314.106l32.071-4.276a3.82,3.82,0,0,1,.423-.032,16.824,16.824,0,0,1,30.822-4.05l6.31,10.929A16.829,16.829,0,0,1,835.666,339.665Z" transform="translate(-163.054 221.711)" fill="url(#a)"/><path d="M1029.494,300.046a38.337,38.337,0,0,1-35.918,19.08l34.483-59.726A38.337,38.337,0,0,1,1029.494,300.046Z" transform="translate(-325.493 249.545)" fill="url(#e)"/><path d="M1009.932,259.141l-34.483,59.726a38.352,38.352,0,0,1,34.483-59.726Z" transform="translate(-307.365 249.804)" fill="url(#e)"/></g></g></svg>